Coordinates
version=1
nRows=58
nColumns=11
inDegrees=yes

Units are S.I. units (second, meters, Newtons, ...)
If the header above contains a line with 'inDegrees', this indicates whether rotational values are in degrees (yes) or radians (no).

endheader
time	pelvis_tilt	pelvis_tx	pelvis_ty	hip_flexion_l	hip_flexion_r	knee_angle_l	knee_angle_r	ankle_angle_l	ankle_angle_r	lumbar_extension
      2.67000000	     -0.35967502	      0.39743473	      0.90898802	     36.05261083	      0.90756438	    -35.99248797	    -26.12419030	     -2.41843502	      5.62434934	     -5.36282936
      2.68000000	     -0.13462723	      0.40769823	      0.90773524	     35.86754454	      0.23320182	    -32.91854512	    -26.65482026	     -3.26644589	      5.79421543	     -5.72456186
      2.69000000	      0.00196735	      0.41805436	      0.90632701	     35.69163753	     -0.49849176	    -29.84805575	    -26.93423456	     -4.20058690	      5.87333929	     -5.96126373
      2.70000000	      0.22755694	      0.42867848	      0.90489510	     35.36059940	     -1.28611972	    -26.93431949	    -27.30407245	     -4.78497159	      5.86989967	     -6.27849802
      2.71000000	      0.37477840	      0.43934555	      0.90324975	     35.13483267	     -1.92752005	    -24.32738872	    -27.81137102	     -5.27879456	      5.99644259	     -6.48428816
      2.72000000	      0.48127716	      0.45022340	      0.90152883	     34.89776825	     -2.55273131	    -21.97109058	    -28.27877316	     -5.58413014	      6.04197730	     -6.63085105
      2.73000000	      0.62456008	      0.46121830	      0.89981393	     34.64579338	     -3.22396132	    -20.00723287	    -28.73103311	     -5.71701372	      6.02136223	     -6.82248565
      2.74000000	      0.71189030	      0.47233953	      0.89807620	     34.42199035	     -3.81676307	    -18.39134374	    -29.19496362	     -5.72709282	      5.88861464	     -6.93252034
      2.75000000	      0.75815837	      0.48361528	      0.89625315	     34.26733933	     -4.40018790	    -17.22944569	    -29.62259127	     -5.65328764	      5.77512636	     -6.98411457
      2.76000000	      0.86797462	      0.49526205	      0.89457257	     34.05597329	     -5.10267287	    -16.53708484	    -29.99307501	     -5.50558484	      5.57432475	     -7.09356738
      2.77000000	      0.91397280	      0.50698439	      0.89283485	     33.94922432	     -5.76711251	    -16.31749792	    -30.29978146	     -5.38641791	      5.20445023	     -7.10648240
      2.78000000	      0.99443993	      0.51907806	      0.89123508	     33.79394172	     -6.50131285	    -16.51505798	    -30.56414258	     -5.22961991	      4.75057276	     -7.17664700
      2.79000000	      0.96366934	      0.53153130	      0.88956491	     33.73921033	     -7.29873411	    -17.10485613	    -30.49206134	     -5.30239826	      4.12915991	     -7.03049414
      2.80000000	      0.80263503	      0.54407852	      0.88778676	     33.81127240	     -7.91683433	    -18.04667597	    -30.51519453	     -5.46267157	      3.60848370	     -6.75147891
      2.81000000	      0.40595015	      0.55647702	      0.88607657	     34.25115566	     -8.30282996	    -19.23775816	    -30.40341120	     -7.64262072	      2.80666253	     -6.22076705
      2.82000000	     -0.19676473	      0.56867675	      0.88474387	     35.19337581	     -8.45461319	    -20.83532431	    -30.21807607	     -9.84589987	      1.80136952	     -5.51512354
      2.83000000	     -0.78038324	      0.58105297	      0.88356932	     36.44946525	     -8.65292476	    -23.36719113	    -29.98329243	     -9.08714538	      0.72285469	     -4.78348687
      2.84000000	     -1.14537266	      0.59373341	      0.88274337	     37.69547859	     -9.12502790	    -26.33223199	    -29.67289777	     -7.86922895	     -0.43381814	     -4.25163178
      2.85000000	     -1.39597636	      0.60612781	      0.88218385	     38.59833466	     -9.61998051	    -28.76536444	    -29.45361519	     -7.52595693	     -1.80262194	     -3.91620157
      2.86000000	     -1.55548547	      0.61907575	      0.88190291	     38.99834562	    -10.23019280	    -30.44561095	    -29.21776635	     -6.91035414	     -3.26557834	     -3.56369957
      2.87000000	     -1.70918694	      0.63209925	      0.88201520	     39.12467463	    -10.77171770	    -31.72084552	    -29.06425474	     -6.12822458	     -4.99298128	     -3.28555374
      2.88000000	     -1.96978101	      0.64520351	      0.88237116	     39.19851351	    -11.02621466	    -32.94906470	    -29.15701444	     -5.25915438	     -6.83279377	     -2.84291806
      2.89000000	     -2.31766243	      0.65830120	      0.88295078	     39.27221464	    -10.95312012	    -34.12614172	    -29.56159331	     -4.16611878	     -8.91319637	     -2.31550933
      2.90000000	     -2.72349446	      0.67135045	      0.88389172	     39.29635470	    -10.56209308	    -35.06838609	    -30.30912362	     -3.09715661	    -11.02212771	     -1.73030822
      2.91000000	     -3.12672820	      0.68415538	      0.88501390	     39.20125984	     -9.98714159	    -35.74112734	    -31.21064530	     -2.20977055	    -13.29991936	     -1.19550284
      2.92000000	     -3.49868373	      0.69663980	      0.88634104	     38.99589023	     -9.26830041	    -36.22173791	    -32.27048877	     -1.37989845	    -15.72145237	     -0.73118529
      2.93000000	     -3.77022451	      0.70889135	      0.88790091	     38.62534276	     -8.58476295	    -36.59332478	    -33.26983714	     -0.54157328	    -18.50396887	     -0.40637066
      2.94000000	     -3.98691596	      0.72086035	      0.88964073	     38.11264461	     -7.82857398	    -36.80667657	    -34.40623659	      0.27911591	    -21.10032075	     -0.19827968
      2.95000000	     -4.17683531	      0.73250516	      0.89161267	     37.51150766	     -6.94807995	    -36.88110291	    -35.69834801	      0.96090907	    -23.50212796	     -0.02493245
      2.96000000	     -4.31748089	      0.74395635	      0.89360328	     36.87248070	     -5.97653482	    -36.96343680	    -37.09777291	      1.73541607	    -25.37491606	      0.02378124
      2.97000000	     -4.53861901	      0.75506834	      0.89558376	     36.24525731	     -4.75474150	    -36.86991096	    -38.61894488	      2.35097181	    -26.33680901	      0.17495369
      2.98000000	     -4.62301312	      0.76603384	      0.89773664	     35.50189854	     -3.60531158	    -36.79405942	    -40.03273946	      2.91022396	    -26.74440748	      0.10416875
      2.99000000	     -4.72331920	      0.77675867	      0.89988503	     34.71606102	     -2.32036598	    -36.58637962	    -41.52246126	      3.46304394	    -26.18106111	      0.08077071
      3.00000000	     -4.79309408	      0.78739340	      0.90212913	     33.84915621	     -1.00449360	    -36.27632319	    -42.83289961	      3.97583042	    -25.10098622	     -0.00793213
      3.01000000	     -4.83183394	      0.79786971	      0.90442800	     32.90200837	      0.31674124	    -35.86148968	    -43.97741761	      4.41949297	    -23.86105308	     -0.11837439
      3.02000000	     -4.87591718	      0.80821176	      0.90672122	     31.93653890	      1.71761220	    -35.38192414	    -45.00243565	      4.82637663	    -22.50972702	     -0.21808023
      3.03000000	     -4.92976718	      0.81850196	      0.90902124	     30.94617845	      3.17985058	    -34.84424507	    -45.92948065	      5.24947496	    -21.14351159	     -0.30236692
      3.04000000	     -4.98009389	      0.82866138	      0.91133149	     29.87460812	      4.70223558	    -34.15346172	    -46.79110661	      5.65491178	    -19.86437782	     -0.39790249
      3.05000000	     -5.04262541	      0.83875366	      0.91349332	     28.86284243	      6.30828421	    -33.52131656	    -47.61235217	      6.06646105	    -18.54107967	     -0.43366764
      3.06000000	     -4.98650700	      0.84892458	      0.91581695	     27.66650918	      7.81685316	    -32.77079947	    -48.42270209	      6.39174225	    -17.21227001	     -0.59007513
      3.07000000	     -4.78152449	      0.85930892	      0.91825948	     26.29891723	      9.12057759	    -32.03006302	    -49.04289362	      6.72758229	    -16.01935027	     -0.89544179
      3.08000000	     -4.90469963	      0.86876130	      0.91983957	     25.41448101	     11.02150019	    -31.42334434	    -49.91855294	      7.10658794	    -14.85182952	     -0.90302805
      3.09000000	     -4.73287765	      0.87861746	      0.92174836	     24.15424651	     12.51202709	    -30.74271422	    -50.55700619	      7.46970135	    -13.72093874	     -1.21027812
      3.10000000	     -4.61040633	      0.88830799	      0.92334502	     22.97214410	     14.07150823	    -30.08328488	    -51.09943451	      7.85851954	    -12.81078348	     -1.47347258
      3.11000000	     -4.39252796	      0.89802803	      0.92481086	     21.71368063	     15.52525562	    -29.48200013	    -51.53048907	      8.27421434	    -11.98224009	     -1.83734643
      3.12000000	     -4.18067226	      0.90768213	      0.92596825	     20.47959384	     16.97069644	    -28.93398315	    -51.81248242	      8.80107898	    -11.27722464	     -2.19385390
      3.13000000	     -3.92980737	      0.91746864	      0.92690301	     19.22872479	     18.33875531	    -28.40237290	    -51.94134505	      9.24552758	    -10.74079423	     -2.56674177
      3.14000000	     -3.64471615	      0.92717589	      0.92751962	     17.98964702	     19.68581517	    -27.95936279	    -52.03195416	      9.77315034	    -10.18146983	     -2.98976407
      3.15000000	     -3.35708755	      0.93699775	      0.92794420	     16.76282301	     20.92724495	    -27.56323995	    -51.85489059	     10.30241676	     -9.75270463	     -3.39056837
      3.16000000	     -3.02245558	      0.94694676	      0.92812948	     15.51637835	     22.05956874	    -27.22317855	    -51.53118553	     10.86443716	     -9.44645594	     -3.83528610
      3.17000000	     -2.63981451	      0.95693721	      0.92810395	     14.28628888	     23.05510287	    -27.00883359	    -51.01247543	     11.47135980	     -9.13448790	     -4.33425359
      3.18000000	     -2.20874299	      0.96697098	      0.92776878	     13.07387917	     23.99153649	    -26.96902927	    -50.41803207	     12.19657674	     -8.92729399	     -4.87352390
      3.19000000	     -1.69634662	      0.97728336	      0.92724232	     11.81342731	     24.69398800	    -27.01945975	    -49.57980245	     12.91080291	     -8.62928734	     -5.48207346
      3.20000000	     -1.12320491	      0.98771355	      0.92650269	     10.55557806	     25.26419998	    -27.21042170	    -48.59729527	     13.70496545	     -8.44763320	     -6.13523822
      3.21000000	     -0.48369653	      0.99838146	      0.92556595	      9.24211887	     25.65911380	    -27.46573563	    -47.42881084	     14.55092475	     -8.26545507	     -6.84827141
      3.22000000	      0.17673598	      1.00906666	      0.92437870	      7.94636272	     25.90910702	    -27.81549379	    -46.04266294	     15.43401734	     -8.12998909	     -7.58712744
      3.23000000	      0.87134584	      1.01990268	      0.92302573	      6.63262774	     26.01535775	    -28.21947046	    -44.45189001	     16.33390562	     -7.83130800	     -8.35357993
      3.24000000	      1.54420108	      1.03090762	      0.92147636	      5.30279771	     26.01749314	    -28.56141688	    -42.64063318	     17.17442500	     -7.73785650	     -9.06865565
